<?xml version="1.0" ?><!DOCTYPE svg  PUBLIC '-//W3C//DTD SVG 1.1//EN'  'http://www.w3.org/Graphics/SVG/1.1/DTD/svg11.dtd'><svg enable-background="new 0 0 100 100" height="100px" id="Layer_1" version="1.1" viewBox="0 0 100 100" width="100px" xml:space="preserve" xmlns="http://www.w3.org/2000/svg" xmlns:xlink="http://www.w3.org/1999/xlink"><g id="Document"><rect height="2.178" width="37.764" x="31.436" y="25.673"/><rect height="2.179" width="37.764" x="31.436" y="33.661"/><rect height="2.179" width="37.764" x="31.436" y="42.375"/><rect height="2.179" width="37.764" x="31.436" y="50.363"/><rect height="2.179" width="37.764" x="31.436" y="59.077"/><path d="M76.823,8.79H24.538c-3.604,0-6.536,2.932-6.536,6.536v69.349c0,3.604,2.932,6.536,6.536,6.536h42.119   c9.21,0,16.702-7.492,16.702-16.702V15.326C83.359,11.721,80.427,8.79,76.823,8.79z M22.358,84.675V15.326   c0-1.202,0.979-2.179,2.18-2.179h52.285c1.2,0,2.178,0.977,2.178,2.179v56.096H62.663v15.432H24.538   C23.337,86.854,22.358,85.876,22.358,84.675z M67.02,86.835V75.779h11.916C78.311,81.873,73.23,86.652,67.02,86.835z"/></g></svg>