<?xml version="1.0" encoding="utf-8"?>
<!-- Generator: Adobe Illustrator 17.0.0, SVG Export Plug-In . SVG Version: 6.00 Build 0)  -->
<!DOCTYPE svg PUBLIC "-//W3C//DTD SVG 1.1//EN" "http://www.w3.org/Graphics/SVG/1.1/DTD/svg11.dtd">
<svg version="1.1" id="Layer_1" xmlns="http://www.w3.org/2000/svg" xmlns:xlink="http://www.w3.org/1999/xlink" x="0px" y="0px"
	 width="423.543px" height="132.873px" viewBox="0 0 423.543 132.873" enable-background="new 0 0 423.543 132.873"
	 xml:space="preserve">
<g>
	<defs>
		<rect id="SVGID_1_" x="0" y="0" width="423.543" height="132.873"/>
	</defs>
	<clipPath id="SVGID_2_">
		<use xlink:href="#SVGID_1_"  overflow="visible"/>
	</clipPath>
	<path clip-path="url(#SVGID_2_)" fill="#807F83" d="M65.939,0.241c0.044-0.1-0.016-0.191-0.1-0.225L20.682,38.612l16.355,23.112
		c1.492-1.273,2.704-2.868,3.531-4.692"/>
	<path clip-path="url(#SVGID_2_)" fill="#807F83" d="M137.018,42.466L68.17,0.053c-0.09-0.057-0.185-0.057-0.271-0.032
		l29.703,38.752l39.234,4.24C137.147,43.05,137.289,42.634,137.018,42.466"/>
	<path clip-path="url(#SVGID_2_)" fill="#807F83" d="M19.271,20.372c1.852,0.049,3.674-0.349,5.337-1.159L62.913,0.582
		c0.084-0.041,0.124-0.14,0.095-0.225c-0.029-0.087-0.126-0.138-0.207-0.107L1.276,19.428c-0.245,0.075-0.2,0.423,0.05,0.431"/>
	<path clip-path="url(#SVGID_2_)" fill="#61A659" d="M2.58,70.36c-0.351,0.613,0.209,1.34,0.887,1.169l28.093-6.98
		c2.045-0.506,3.907-1.486,5.477-2.825L20.684,38.612"/>
	<path clip-path="url(#SVGID_2_)" fill="#61A659" d="M67.643,0.306L62.16,62.481c-0.156,1.817,0.312,3.561,1.236,5.014
		l34.205-28.722L67.898,0.021C67.769,0.057,67.664,0.158,67.643,0.306"/>
	<path clip-path="url(#SVGID_2_)" fill="#61A659" d="M70.816,0.098c-0.087-0.031-0.182,0.015-0.206,0.104
		c-0.038,0.085,0.009,0.183,0.088,0.227l26.146,13.266c1.618,0.824,3.353,1.405,5.141,1.726l28.973,5.133
		c0.152,0.031,0.285-0.064,0.316-0.206c0.045-0.147-0.037-0.295-0.177-0.336L100.278,8.61"/>
	<path clip-path="url(#SVGID_2_)" fill="#FFD200" d="M65.691,0.019L0.155,39.392c-0.283,0.169-0.15,0.603,0.178,0.578l20.351-1.358
		L65.84,0.016C65.798-0.004,65.747-0.007,65.691,0.019"/>
	<path clip-path="url(#SVGID_2_)" fill="#FFD200" d="M67.879,70.852l45.59,13.364c0.734,0.213,1.388-0.494,1.139-1.206
		L97.601,38.772L63.397,67.495C64.413,69.071,65.972,70.299,67.879,70.852"/>
	<path clip-path="url(#SVGID_2_)" fill="#FFD200" d="M108.973,19.474c-0.043,0.157,0.029,0.323,0.174,0.399l43.859,22.258
		c0.129,0.066,0.285-0.003,0.326-0.145c0.051-0.169,0.004-0.352-0.112-0.472l-10.999-11.9c-1.213-1.319-2.777-2.267-4.507-2.725
		l-28.402-7.615C109.16,19.241,109.011,19.324,108.973,19.474"/>
	<path clip-path="url(#SVGID_2_)" fill="#807F83" d="M205.129,50.842c-0.133-0.215-0.448-0.215-0.588,0L183.68,82.595
		c-0.136,0.192,0.004,0.431,0.244,0.431h7.204c0.334,0,0.635-0.157,0.824-0.431l5.071-7.715h15.632l5.066,7.715
		c0.177,0.274,0.485,0.431,0.811,0.431h7.224c0.229,0,0.377-0.239,0.243-0.431 M200.49,69.596l4.345-6.616l4.355,6.616H200.49z"/>
	<path clip-path="url(#SVGID_2_)" fill="#807F83" d="M326.19,50.842c-0.148-0.215-0.449-0.215-0.585,0l-20.879,31.753
		c-0.132,0.192,0.018,0.431,0.24,0.431h7.226c0.332,0,0.632-0.157,0.816-0.431l5.065-7.715h15.632l5.065,7.715
		c0.176,0.274,0.497,0.431,0.832,0.431h7.213c0.232,0,0.359-0.239,0.232-0.431 M321.551,69.596l4.341-6.616l4.34,6.616H321.551z"/>
	<path clip-path="url(#SVGID_2_)" fill="#807F83" d="M407.818,57.555h15.19c0.296,0,0.534-0.237,0.534-0.54V52.79
		c0-0.286-0.238-0.523-0.534-0.523h-18.524c-8.478,0-15.387,6.883-15.387,15.396c0,8.481,6.909,15.363,15.387,15.363h18.524
		c0.312,0,0.534-0.23,0.534-0.534v-4.186c0-0.29-0.238-0.528-0.534-0.528h-15.19c-5.588,0-10.127-4.503-10.127-10.106
		C397.69,62.076,402.229,57.555,407.818,57.555"/>
	<path clip-path="url(#SVGID_2_)" fill="#807F83" d="M173.525,52.267c-0.335,0-0.661,0.12-0.925,0.348l-19.245,17.059V52.789
		c0-0.286-0.247-0.522-0.541-0.522h-7.016c-0.292,0-0.524,0.236-0.524,0.522v31.692c0,0.208,0.234,0.318,0.391,0.185l16.279-14.14
		l9.939,12.1c0.227,0.256,0.541,0.4,0.878,0.4h9.009c0.201,0,0.313-0.239,0.188-0.388L167.391,65.86l15.207-13.245
		c0.118-0.114,0.049-0.348-0.138-0.348"/>
	<path clip-path="url(#SVGID_2_)" fill="#807F83" d="M377.12,70.157c1.552-0.155,2.816-0.437,4.008-0.918
		c3.009-1.265,4.712-4.155,4.712-7.927c0-2.489-0.822-4.588-2.41-6.213c-1.99-2.063-4.566-2.839-9.093-2.839h-23.556
		c-0.303,0-0.531,0.241-0.531,0.525v29.722c0,0.287,0.228,0.519,0.531,0.519h7.003c0.296,0,0.535-0.232,0.535-0.519V70.299h10.302
		l8.324,12.301c0.189,0.265,0.494,0.426,0.824,0.426h8.2c0.224,0,0.35-0.232,0.208-0.414 M371.65,65.037h-12.805
		c-0.29,0-0.526-0.237-0.526-0.531v-6.428c0-0.291,0.236-0.523,0.526-0.523h14.056c3.409,0,5.084,1.178,5.084,3.67
		C377.985,64.028,376.31,65.037,371.65,65.037"/>
	<path clip-path="url(#SVGID_2_)" fill="#807F83" d="M253.181,52.26H229.63c-0.304,0-0.535,0.241-0.535,0.525v29.727
		c0,0.287,0.231,0.514,0.535,0.514h7.013c0.303,0,0.534-0.227,0.534-0.514V70.284h16.004c2.986,0,4.937-0.302,6.775-1.045
		c3.013-1.265,4.714-4.155,4.714-7.927c0-2.489-0.821-4.588-2.401-6.213C260.293,53.036,257.689,52.26,253.181,52.26
		 M250.492,65.037H237.71c-0.298,0-0.533-0.237-0.533-0.531v-6.428c0-0.291,0.235-0.523,0.533-0.523h14.034
		c3.416,0,5.076,1.178,5.076,3.67C256.82,64.028,255.16,65.037,250.492,65.037"/>
	<path clip-path="url(#SVGID_2_)" fill="#807F83" d="M291.784,65.003h-10.12c-3.422,0-5.087-1.187-5.087-3.682
		c0-2.796,1.665-3.799,6.324-3.799h17.189c0.289,0,0.533-0.244,0.533-0.528V52.79c0-0.286-0.244-0.523-0.533-0.523h-19.872
		c-3.007,0-4.928,0.305-6.787,1.05c-3.005,1.266-4.706,4.155-4.706,7.92c0,2.498,0.819,4.585,2.397,6.222
		c1.985,2.052,4.58,2.84,9.096,2.84h10.143c3.422,0,5.076,1.177,5.076,3.683c0,2.793-1.654,3.789-6.324,3.789H269.78
		c-0.282,0-0.519,0.255-0.519,0.535v4.206c0,0.287,0.237,0.514,0.519,0.514h22.003c3.005,0,4.947-0.3,6.799-1.048
		c2.986-1.268,4.696-4.148,4.696-7.915c0-2.501-0.825-4.587-2.394-6.22C298.896,65.789,296.318,65.003,291.784,65.003"/>
	<polyline clip-path="url(#SVGID_2_)" fill="#807F83" points="0.017,119.302 1.255,119.302 1.255,125.886 7.583,119.302 
		9.186,119.302 4.47,124.123 9.389,130.322 7.844,130.322 3.599,124.984 1.255,127.367 1.255,130.322 0.017,130.322 	"/>
	<path clip-path="url(#SVGID_2_)" fill="#807F83" d="M11.161,120.408v-1.339h1.387v1.339H11.161z M11.242,130.322v-8.142h1.211
		v8.142H11.242z"/>
	<path clip-path="url(#SVGID_2_)" fill="#807F83" d="M15.278,122.18h1.211v1.42c0.535-0.888,1.386-1.596,2.778-1.596
		c1.977,0,3.118,1.333,3.118,3.261v5.057h-1.211v-4.756c0-1.51-0.814-2.456-2.249-2.456c-1.4,0-2.436,1.025-2.436,2.551v4.661
		h-1.211"/>
	<path clip-path="url(#SVGID_2_)" fill="#807F83" d="M24.883,131.74l0.549-0.946c0.927,0.679,1.963,1.04,3.128,1.04
		c1.792,0,2.962-0.991,2.962-2.898v-0.956c-0.706,0.942-1.699,1.712-3.204,1.712c-1.945,0-3.814-1.463-3.814-3.806v-0.037
		c0-2.375,1.879-3.845,3.814-3.845c1.533,0,2.531,0.76,3.19,1.644v-1.468h1.211v6.727c0,1.259-0.379,2.22-1.041,2.875
		c-0.726,0.726-1.812,1.091-3.099,1.091C27.225,132.873,25.961,132.494,24.883,131.74 M31.549,125.864v-0.023
		c0-1.678-1.442-2.765-2.989-2.765c-1.548,0-2.816,1.075-2.816,2.746v0.027c0,1.635,1.306,2.775,2.816,2.775
		C30.107,128.624,31.549,127.502,31.549,125.864"/>
	<path clip-path="url(#SVGID_2_)" fill="#807F83" d="M44.437,119.22H45.6l5.022,11.102h-1.341l-1.287-2.91h-5.995l-1.31,2.91h-1.278
		 M47.502,126.29l-2.503-5.62l-2.517,5.62H47.502z"/>
	<path clip-path="url(#SVGID_2_)" fill="#807F83" d="M53.805,128.761v1.561h-1.211v-11.494h1.211v4.991
		c0.658-0.974,1.624-1.815,3.119-1.815c1.95,0,3.889,1.543,3.889,4.225v0.032c0,2.661-1.925,4.231-3.889,4.231
		C55.41,130.492,54.434,129.673,53.805,128.761 M59.569,126.274v-0.027c0-1.923-1.326-3.153-2.869-3.153
		c-1.504,0-2.942,1.273-2.942,3.135v0.032c0,1.884,1.438,3.15,2.942,3.15C58.281,129.411,59.569,128.239,59.569,126.274"/>
	<path clip-path="url(#SVGID_2_)" fill="#807F83" d="M62.573,126.274v-0.028c0-2.668,1.945-4.242,3.894-4.242
		c1.515,0,2.484,0.828,3.114,1.733v-4.909h1.212v11.494h-1.212v-1.64c-0.657,0.977-1.623,1.81-3.114,1.81
		C64.518,130.492,62.573,128.954,62.573,126.274 M69.632,126.261v-0.032c0-1.875-1.438-3.135-2.947-3.135
		c-1.576,0-2.868,1.166-2.868,3.135v0.032c0,1.92,1.321,3.15,2.868,3.15C68.194,129.411,69.632,128.136,69.632,126.261"/>
	<path clip-path="url(#SVGID_2_)" fill="#807F83" d="M73.382,127.236v-5.056h1.21v4.759c0,1.505,0.814,2.452,2.247,2.452
		c1.387,0,2.443-1.026,2.443-2.548v-4.663h1.197v8.142h-1.197v-1.415c-0.549,0.881-1.387,1.585-2.788,1.585
		C74.53,130.492,73.382,129.168,73.382,127.236"/>
	<rect x="83.314" y="118.828" clip-path="url(#SVGID_2_)" fill="#807F83" width="1.221" height="11.494"/>
	<rect x="87.459" y="118.828" clip-path="url(#SVGID_2_)" fill="#807F83" width="1.211" height="11.494"/>
	<path clip-path="url(#SVGID_2_)" fill="#807F83" d="M90.871,127.961v-0.03c0-1.755,1.42-2.666,3.482-2.666
		c1.037,0,1.766,0.145,2.489,0.346v-0.248c0-1.449-0.879-2.207-2.408-2.207c-0.96,0-1.712,0.242-2.475,0.582l-0.355-0.992
		c0.891-0.405,1.761-0.693,2.958-0.693c1.146,0,2.044,0.318,2.626,0.905c0.568,0.564,0.847,1.349,0.847,2.388v4.976h-1.193v-1.212
		c-0.566,0.722-1.494,1.382-2.928,1.382C92.385,130.492,90.871,129.626,90.871,127.961 M96.856,127.326v-0.753
		c-0.6-0.173-1.386-0.344-2.373-0.344c-1.515,0-2.382,0.662-2.382,1.636v0.034c0,1.023,0.947,1.621,2.054,1.621
		C95.645,129.52,96.856,128.623,96.856,127.326"/>
	<path clip-path="url(#SVGID_2_)" fill="#807F83" d="M100.614,118.827h1.206v4.772c0.535-0.886,1.387-1.595,2.78-1.595
		c1.977,0,3.121,1.333,3.121,3.261v5.056h-1.215v-4.755c0-1.509-0.815-2.456-2.248-2.456c-1.401,0-2.438,1.025-2.438,2.551v4.66
		h-1.206"/>
	<path clip-path="url(#SVGID_2_)" fill="#807F83" d="M115.229,119.302h4.128c2.489,0,4.126,1.318,4.126,3.496v0.034
		c0,2.372-1.987,3.603-4.33,3.603h-2.673v3.887h-1.251 M119.201,125.3c1.827,0,3.023-0.977,3.023-2.425v-0.03
		c0-1.576-1.179-2.394-2.963-2.394h-2.781v4.849H119.201z"/>
	<path clip-path="url(#SVGID_2_)" fill="#807F83" d="M129.063,129.451c1.121,0,1.906-0.452,2.574-1.144l0.751,0.675
		c-0.822,0.912-1.817,1.53-3.36,1.53c-2.238,0-4.054-1.719-4.054-4.251c0-2.363,1.646-4.256,3.898-4.256
		c2.404,0,3.797,1.926,3.797,4.316c0,0.114,0,0.24-0.021,0.423h-6.454C126.369,128.463,127.633,129.451,129.063,129.451
		 M131.438,125.769c-0.136-1.476-0.988-2.739-2.598-2.739c-1.399,0-2.47,1.168-2.645,2.739H131.438z"/>
	<path clip-path="url(#SVGID_2_)" fill="#807F83" d="M135.219,128.167v-4.915h-1.131v-1.073h1.131v-2.452h1.222v2.452h2.573v1.073
		h-2.573v4.754c0,0.993,0.543,1.353,1.363,1.353c0.41,0,0.761-0.078,1.177-0.282v1.042c-0.416,0.219-0.875,0.344-1.462,0.344
		C136.212,130.463,135.219,129.816,135.219,128.167"/>
	<path clip-path="url(#SVGID_2_)" fill="#807F83" d="M141.158,122.18h1.216v2.127c0.591-1.349,1.774-2.328,3.316-2.267v1.312h-0.093
		c-1.775,0-3.223,1.269-3.223,3.723v3.247h-1.216"/>
	<path clip-path="url(#SVGID_2_)" fill="#807F83" d="M146.684,126.29v-0.029c0-2.3,1.794-4.257,4.254-4.257
		c2.433,0,4.236,1.927,4.236,4.225v0.032c0,2.3-1.808,4.25-4.273,4.25C148.459,130.511,146.684,128.59,146.684,126.29
		 M153.928,126.29v-0.029c0-1.747-1.311-3.185-3.027-3.185c-1.761,0-2.968,1.438-2.968,3.153v0.032c0,1.745,1.287,3.161,3.005,3.161
		C152.703,129.422,153.928,128.006,153.928,126.29"/>
	<rect x="157.479" y="118.828" clip-path="url(#SVGID_2_)" fill="#807F83" width="1.211" height="11.494"/>
	<path clip-path="url(#SVGID_2_)" fill="#807F83" d="M165.087,129.451c1.121,0,1.916-0.452,2.569-1.144l0.757,0.675
		c-0.819,0.912-1.803,1.53-3.355,1.53c-2.233,0-4.058-1.719-4.058-4.251c0-2.363,1.654-4.256,3.907-4.256
		c2.404,0,3.794,1.926,3.794,4.316c0,0.114,0,0.24-0.019,0.423h-6.454C162.399,128.463,163.662,129.451,165.087,129.451
		 M167.471,125.769c-0.145-1.476-0.997-2.739-2.602-2.739c-1.395,0-2.47,1.168-2.641,2.739H167.471z"/>
	<path clip-path="url(#SVGID_2_)" fill="#807F83" d="M170.699,127.236v-5.056h1.216v4.759c0,1.505,0.813,2.452,2.248,2.452
		c1.385,0,2.441-1.026,2.441-2.548v-4.663h1.198v8.142h-1.198v-1.415c-0.553,0.881-1.387,1.585-2.786,1.585
		C171.849,130.492,170.699,129.168,170.699,127.236"/>
	<path clip-path="url(#SVGID_2_)" fill="#807F83" d="M180.523,122.18h1.211v1.368c0.54-0.801,1.268-1.544,2.631-1.544
		c1.326,0,2.172,0.708,2.614,1.626c0.585-0.898,1.447-1.626,2.866-1.626c1.874,0,3.024,1.267,3.024,3.274v5.044h-1.217v-4.756
		c0-1.571-0.78-2.456-2.094-2.456c-1.237,0-2.264,0.917-2.264,2.517v4.695h-1.192v-4.79c0-1.52-0.808-2.422-2.096-2.422
		c-1.292,0-2.272,1.07-2.272,2.565v4.647h-1.211"/>
	<path clip-path="url(#SVGID_2_)" fill="#807F83" d="M199.702,128.706l0.776-0.902c1.145,1.037,2.253,1.555,3.776,1.555
		c1.487,0,2.461-0.785,2.461-1.874v-0.032c0-1.018-0.553-1.604-2.868-2.09c-2.537-0.552-3.705-1.368-3.705-3.183v-0.031
		c0-1.73,1.538-3.007,3.625-3.007c1.605,0,2.757,0.459,3.875,1.361l-0.728,0.956c-1.022-0.839-2.04-1.198-3.176-1.198
		c-1.433,0-2.352,0.787-2.352,1.779v0.032c0,1.038,0.573,1.622,3,2.139c2.452,0.534,3.587,1.43,3.587,3.115v0.041
		c0,1.881-1.575,3.11-3.762,3.11C202.46,130.477,201.031,129.893,199.702,128.706"/>
	<path clip-path="url(#SVGID_2_)" fill="#807F83" d="M210.645,128.167v-4.915h-1.13v-1.073h1.13v-2.452h1.222v2.452h2.579v1.073
		h-2.579v4.754c0,0.993,0.549,1.353,1.367,1.353c0.402,0,0.757-0.078,1.183-0.282v1.042c-0.426,0.219-0.889,0.344-1.472,0.344
		C211.64,130.463,210.645,129.816,210.645,128.167"/>
	<path clip-path="url(#SVGID_2_)" fill="#807F83" d="M216.467,127.236v-5.056h1.207v4.759c0,1.505,0.815,2.452,2.252,2.452
		c1.383,0,2.437-1.026,2.437-2.548v-4.663h1.197v8.142h-1.197v-1.415c-0.549,0.881-1.386,1.585-2.783,1.585
		C217.613,130.492,216.467,129.168,216.467,127.236"/>
	<path clip-path="url(#SVGID_2_)" fill="#807F83" d="M225.816,126.274v-0.028c0-2.668,1.936-4.242,3.895-4.242
		c1.505,0,2.479,0.828,3.114,1.733v-4.909h1.212v11.494h-1.212v-1.64c-0.667,0.977-1.622,1.81-3.114,1.81
		C227.753,130.492,225.816,128.954,225.816,126.274 M232.872,126.261v-0.032c0-1.875-1.432-3.135-2.951-3.135
		c-1.572,0-2.859,1.166-2.859,3.135v0.032c0,1.92,1.321,3.15,2.859,3.15C231.439,129.411,232.872,128.136,232.872,126.261"/>
	<path clip-path="url(#SVGID_2_)" fill="#807F83" d="M236.773,120.408v-1.339h1.387v1.339H236.773z M236.858,130.322v-8.142h1.216
		v8.142H236.858z"/>
	<path clip-path="url(#SVGID_2_)" fill="#807F83" d="M244.481,129.451c1.106,0,1.902-0.452,2.558-1.144l0.757,0.675
		c-0.812,0.912-1.812,1.53-3.355,1.53c-2.228,0-4.054-1.719-4.054-4.251c0-2.363,1.646-4.256,3.894-4.256
		c2.414,0,3.8,1.926,3.8,4.316c0,0.114,0,0.24-0.014,0.423h-6.46C241.786,128.463,243.047,129.451,244.481,129.451 M246.85,125.769
		c-0.136-1.476-0.983-2.739-2.593-2.739c-1.405,0-2.471,1.168-2.65,2.739H246.85z"/>
	<path clip-path="url(#SVGID_2_)" fill="#807F83" d="M249.529,129.28l0.622-0.866c0.874,0.664,1.849,1.037,2.819,1.037
		s1.675-0.497,1.675-1.285v-0.03c0-0.826-0.951-1.138-2.026-1.437c-1.271-0.362-2.692-0.801-2.692-2.295v-0.037
		c0-1.394,1.165-2.327,2.764-2.327c1.003,0,2.096,0.346,2.934,0.9l-0.553,0.913c-0.758-0.492-1.624-0.79-2.405-0.79
		c-0.961,0-1.575,0.505-1.575,1.183v0.031c0,0.77,1.012,1.069,2.095,1.398c1.259,0.379,2.612,0.871,2.612,2.331v0.035
		c0,1.538-1.273,2.437-2.9,2.437C251.74,130.478,250.447,130.024,249.529,129.28"/>
	<path clip-path="url(#SVGID_2_)" fill="#807F83" d="M262.165,127.961v-0.03c0-1.755,1.414-2.666,3.473-2.666
		c1.04,0,1.77,0.145,2.492,0.346v-0.248c0-1.449-0.888-2.207-2.407-2.207c-0.961,0-1.722,0.242-2.479,0.582l-0.355-0.992
		c0.898-0.405,1.765-0.693,2.956-0.693c1.151,0,2.044,0.318,2.631,0.905c0.565,0.564,0.847,1.349,0.847,2.388v4.976h-1.193v-1.212
		c-0.572,0.722-1.489,1.382-2.927,1.382C263.669,130.492,262.165,129.626,262.165,127.961 M268.14,127.326v-0.753
		c-0.596-0.173-1.382-0.344-2.37-0.344c-1.514,0-2.385,0.662-2.385,1.636v0.034c0,1.023,0.952,1.621,2.05,1.621
		C266.933,129.52,268.14,128.623,268.14,127.326"/>
	<path clip-path="url(#SVGID_2_)" fill="#807F83" d="M271.897,122.18h1.207v1.42c0.534-0.888,1.386-1.596,2.783-1.596
		c1.973,0,3.128,1.333,3.128,3.261v5.057h-1.221v-4.756c0-1.51-0.814-2.456-2.246-2.456c-1.399,0-2.444,1.025-2.444,2.551v4.661
		h-1.207"/>
	<path clip-path="url(#SVGID_2_)" fill="#807F83" d="M281.119,126.274v-0.028c0-2.668,1.941-4.242,3.89-4.242
		c1.508,0,2.485,0.828,3.118,1.733v-4.909h1.213v11.494h-1.213v-1.64c-0.659,0.977-1.622,1.81-3.118,1.81
		C283.06,130.492,281.119,128.954,281.119,126.274 M288.171,126.261v-0.032c0-1.875-1.433-3.135-2.943-3.135
		c-1.566,0-2.863,1.166-2.863,3.135v0.032c0,1.92,1.32,3.15,2.863,3.15C286.737,129.411,288.171,128.136,288.171,126.261"/>
	<path clip-path="url(#SVGID_2_)" fill="#807F83" d="M296.976,119.302h4.736c1.354,0,2.448,0.411,3.134,1.106
		c0.534,0.529,0.851,1.302,0.851,2.167v0.032c0,1.827-1.254,2.893-2.991,3.215l3.394,4.5h-1.529l-3.199-4.283h-3.15v4.283h-1.246
		 M301.609,124.925c1.658,0,2.834-0.854,2.834-2.269v-0.03c0-1.358-1.046-2.175-2.824-2.175h-3.397v4.474H301.609z"/>
	<path clip-path="url(#SVGID_2_)" fill="#807F83" d="M311.588,129.451c1.123,0,1.909-0.452,2.567-1.144l0.757,0.675
		c-0.815,0.912-1.813,1.53-3.355,1.53c-2.234,0-4.056-1.719-4.056-4.251c0-2.363,1.647-4.256,3.904-4.256
		c2.4,0,3.784,1.926,3.784,4.316c0,0.114,0,0.24-0.007,0.423h-6.455C308.888,128.463,310.161,129.451,311.588,129.451
		 M313.97,125.769c-0.142-1.476-0.993-2.739-2.598-2.739c-1.405,0-2.484,1.168-2.645,2.739H313.97z"/>
	<path clip-path="url(#SVGID_2_)" fill="#807F83" d="M316.638,129.28l0.626-0.866c0.88,0.664,1.858,1.037,2.809,1.037
		c0.977,0,1.686-0.497,1.686-1.285v-0.03c0-0.826-0.951-1.138-2.026-1.437c-1.272-0.362-2.692-0.801-2.692-2.295v-0.037
		c0-1.394,1.169-2.327,2.777-2.327c0.99,0,2.093,0.346,2.924,0.9l-0.552,0.913c-0.759-0.492-1.623-0.79-2.409-0.79
		c-0.964,0-1.571,0.505-1.571,1.183v0.031c0,0.77,1.007,1.069,2.087,1.398c1.263,0.379,2.611,0.871,2.611,2.331v0.035
		c0,1.538-1.268,2.437-2.895,2.437C318.849,130.478,317.561,130.024,316.638,129.28"/>
	<path clip-path="url(#SVGID_2_)" fill="#807F83" d="M328.751,129.451c1.118,0,1.909-0.452,2.565-1.144l0.753,0.675
		c-0.814,0.912-1.803,1.53-3.347,1.53c-2.233,0-4.059-1.719-4.059-4.251c0-2.363,1.651-4.256,3.904-4.256
		c2.409,0,3.801,1.926,3.801,4.316c0,0.114,0,0.24-0.025,0.423h-6.459C326.064,128.463,327.318,129.451,328.751,129.451
		 M331.133,125.769c-0.141-1.476-0.988-2.739-2.593-2.739c-1.405,0-2.476,1.168-2.655,2.739H331.133z"/>
	<path clip-path="url(#SVGID_2_)" fill="#807F83" d="M333.872,127.961v-0.03c0-1.755,1.425-2.666,3.483-2.666
		c1.042,0,1.761,0.145,2.489,0.346v-0.248c0-1.449-0.884-2.207-2.413-2.207c-0.961,0-1.716,0.242-2.47,0.582l-0.36-0.992
		c0.895-0.405,1.761-0.693,2.958-0.693c1.149,0,2.048,0.318,2.622,0.905c0.572,0.564,0.851,1.349,0.851,2.388v4.976h-1.188v-1.212
		c-0.572,0.722-1.495,1.382-2.929,1.382C335.387,130.492,333.872,129.626,333.872,127.961 M339.859,127.326v-0.753
		c-0.601-0.173-1.387-0.344-2.381-0.344c-1.504,0-2.375,0.662-2.375,1.636v0.034c0,1.023,0.941,1.621,2.044,1.621
		C338.643,129.52,339.859,128.623,339.859,127.326"/>
	<path clip-path="url(#SVGID_2_)" fill="#807F83" d="M343.606,122.18h1.212v2.127c0.596-1.349,1.779-2.328,3.321-2.267v1.312h-0.095
		c-1.774,0-3.226,1.269-3.226,3.723v3.247h-1.212"/>
	<path clip-path="url(#SVGID_2_)" fill="#807F83" d="M349.138,126.29v-0.029c0-2.3,1.789-4.257,4.165-4.257
		c1.547,0,2.503,0.652,3.266,1.452l-0.811,0.852c-0.642-0.679-1.363-1.232-2.471-1.232c-1.651,0-2.914,1.407-2.914,3.153v0.032
		c0,1.756,1.297,3.161,2.99,3.161c1.042,0,1.847-0.515,2.489-1.21l0.782,0.724c-0.828,0.912-1.804,1.575-3.331,1.575
		C350.926,130.511,349.138,128.573,349.138,126.29"/>
	<path clip-path="url(#SVGID_2_)" fill="#807F83" d="M358.63,118.827h1.212v4.772c0.538-0.886,1.385-1.595,2.782-1.595
		c1.963,0,3.119,1.333,3.119,3.261v5.056h-1.213v-4.755c0-1.509-0.809-2.456-2.248-2.456c-1.395,0-2.44,1.025-2.44,2.551v4.66
		h-1.212"/>
	<path clip-path="url(#SVGID_2_)" fill="#807F83" d="M372.763,124.842v-0.031c0-3.114,2.333-5.695,5.579-5.695
		c1.998,0,3.2,0.704,4.307,1.741l-0.856,0.919c-0.923-0.885-1.969-1.515-3.465-1.515c-2.44,0-4.269,1.988-4.269,4.52v0.03
		c0,2.555,1.838,4.548,4.269,4.548c1.511,0,2.499-0.584,3.555-1.588l0.817,0.803c-1.148,1.161-2.403,1.938-4.404,1.938
		C375.111,130.512,372.763,128.006,372.763,124.842"/>
	<path clip-path="url(#SVGID_2_)" fill="#807F83" d="M388.105,129.451c1.118,0,1.903-0.452,2.57-1.144l0.749,0.675
		c-0.81,0.912-1.799,1.53-3.342,1.53c-2.242,0-4.069-1.719-4.069-4.251c0-2.363,1.657-4.256,3.904-4.256
		c2.408,0,3.795,1.926,3.795,4.316c0,0.114,0,0.24-0.019,0.423h-6.449C385.423,128.463,386.681,129.451,388.105,129.451
		 M390.481,125.769c-0.142-1.476-0.989-2.739-2.597-2.739c-1.402,0-2.461,1.168-2.64,2.739H390.481z"/>
	<path clip-path="url(#SVGID_2_)" fill="#807F83" d="M393.841,122.18h1.211v1.42c0.54-0.888,1.386-1.596,2.788-1.596
		c1.962,0,3.118,1.333,3.118,3.261v5.057h-1.216v-4.756c0-1.51-0.818-2.456-2.249-2.456c-1.4,0-2.441,1.025-2.441,2.551v4.661
		h-1.211"/>
	<path clip-path="url(#SVGID_2_)" fill="#807F83" d="M403.963,128.167v-4.915h-1.136v-1.073h1.136v-2.452h1.207v2.452h2.588v1.073
		h-2.588v4.754c0,0.993,0.558,1.353,1.377,1.353c0.412,0,0.753-0.078,1.174-0.282v1.042c-0.421,0.219-0.877,0.344-1.453,0.344
		C404.96,130.463,403.963,129.816,403.963,128.167"/>
	<path clip-path="url(#SVGID_2_)" fill="#807F83" d="M413.25,129.451c1.127,0,1.912-0.452,2.574-1.144l0.754,0.675
		c-0.815,0.912-1.808,1.53-3.355,1.53c-2.234,0-4.055-1.719-4.055-4.251c0-2.363,1.651-4.256,3.898-4.256
		c2.408,0,3.794,1.926,3.794,4.316c0,0.114,0,0.24-0.018,0.423h-6.448C410.568,128.463,411.827,129.451,413.25,129.451
		 M415.635,125.769c-0.151-1.476-0.989-2.739-2.596-2.739c-1.407,0-2.471,1.168-2.645,2.739H415.635z"/>
	<path clip-path="url(#SVGID_2_)" fill="#807F83" d="M418.987,122.18h1.211v2.127c0.606-1.349,1.784-2.328,3.327-2.267v1.312h-0.09
		c-1.784,0-3.237,1.269-3.237,3.723v3.247h-1.211"/>
	<rect x="3.854" y="99.332" clip-path="url(#SVGID_2_)" fill="#807F83" width="2.229" height="1.898"/>
	<rect x="0.613" y="99.332" clip-path="url(#SVGID_2_)" fill="#807F83" width="2.224" height="1.898"/>
	<rect x="26.251" y="111.085" clip-path="url(#SVGID_2_)" fill="#807F83" width="2.229" height="1.894"/>
	<rect x="23.005" y="111.085" clip-path="url(#SVGID_2_)" fill="#807F83" width="2.229" height="1.894"/>
	<path clip-path="url(#SVGID_2_)" fill="#807F83" d="M33.94,106.984c0,0.648-0.36,0.991-0.942,0.991h-2.962
		c-0.98,0-1.576-0.627-1.576-1.595v-3.012h-2.21v3.293c0,0.932-0.459,1.314-1.315,1.314h-1.472H9.122H7.857
		c-0.575,0-0.931-0.343-0.931-0.991v-5.079l-2.219,0.545v0.555c-2.74,0.015-4.719,0.933-4.671,3.524
		c0.019,1.446,1.254,2.825,2.821,2.905c1.097,0.066,1.803-0.492,2.153-0.89c0.34,0.841,1.073,1.61,2.654,1.61h1.458h14.342h2.1
		c1.013,0,1.865-0.459,2.253-1.147c0.431,0.584,1.155,1.147,2.352,1.147h3.019c2.755,0,2.972-2.36,2.972-3.294v-7.332H33.94
		 M4.707,106.316c0,1.047-0.606,1.573-1.335,1.554c-0.927-0.011-1.235-0.949-1.221-1.509c0.043-1.521,1.423-2.002,2.556-2.002
		V106.316z"/>
	<path clip-path="url(#SVGID_2_)" fill="#807F83" d="M38.222,106.415c0,2.101,1.677,3.739,3.876,3.739h1.222
		c-0.371,0.885-1.524,0.901-1.913,0.901h-0.031c-0.526,0-1.052-0.116-1.431-0.227l0.578,1.95c0.346,0.096,0.904,0.183,1.349,0.183
		c1.669,0,3.781-0.805,3.781-3.38v-6.724h-3.555C39.733,102.857,38.222,104.359,38.222,106.415 M43.424,107.975h-1.391
		c-0.971,0-1.528-0.74-1.528-1.56c0-0.755,0.557-1.59,1.528-1.59h1.391V107.975z"/>
	<rect x="57.984" y="99.528" clip-path="url(#SVGID_2_)" fill="#807F83" width="2.243" height="1.895"/>
	<rect x="54.743" y="99.528" clip-path="url(#SVGID_2_)" fill="#807F83" width="2.233" height="1.895"/>
	<rect x="65.673" y="111.085" clip-path="url(#SVGID_2_)" fill="#807F83" width="2.229" height="1.894"/>
	<path clip-path="url(#SVGID_2_)" fill="#807F83" d="M73.395,106.983c0,0.649-0.363,0.992-0.951,0.992h-2.951
		c-0.981,0-1.573-0.628-1.573-1.595v-3.012h-2.214v3.293c0,0.932-0.458,1.314-1.314,1.314h-2.575c-0.984,0-1.576-0.628-1.576-1.595
		v-3.012h-2.21v3.293c0,0.932-0.463,1.314-1.315,1.314h-2.599c-0.97,0-1.538-0.59-1.57-1.508v-3.099h-2.234v5.638
		c-0.019,1.555-1.243,2.049-2.04,2.049c-0.942,0-1.878-0.376-1.878-0.376l0.365,1.819c0,0,0.799,0.376,1.817,0.463
		c1.835,0.144,3.69-1.018,3.937-3.314c0.407,0.296,0.984,0.507,1.737,0.507h3.09c1.016,0,1.868-0.459,2.256-1.148
		c0.436,0.584,1.146,1.148,2.348,1.148h3.074c1.018,0,1.865-0.459,2.259-1.148c0.431,0.584,1.154,1.148,2.346,1.148h3.019
		c2.759,0,2.971-2.36,2.971-3.293v-7.333h-2.219"/>
	<rect x="77.972" y="99.527" clip-path="url(#SVGID_2_)" fill="#807F83" width="2.201" height="10.626"/>
	<rect x="90.966" y="99.639" clip-path="url(#SVGID_2_)" fill="#807F83" width="1.822" height="1.591"/>
	<path clip-path="url(#SVGID_2_)" fill="#807F83" d="M96.479,106.983c0,0.649-0.345,0.992-0.934,0.992h-6.567
		c-0.908,0-1.49-0.755-1.49-1.432c0-0.606,0.369-1.082,0.369-1.082s-0.663-0.555-1.595-1.407c-0.752,0.98-0.871,1.933-0.871,2.53
		c0,1.781,1.529,3.57,3.672,3.57h6.653c2.764,0,2.995-2.36,2.995-3.293v-4.004h-2.232"/>
	<rect x="92.324" y="101.969" clip-path="url(#SVGID_2_)" fill="#807F83" width="1.978" height="1.688"/>
	<rect x="89.461" y="101.969" clip-path="url(#SVGID_2_)" fill="#807F83" width="1.969" height="1.688"/>
	<rect x="126.275" y="111.085" clip-path="url(#SVGID_2_)" fill="#807F83" width="2.229" height="1.894"/>
	<path clip-path="url(#SVGID_2_)" fill="#807F83" d="M134.008,106.983c0,0.649-0.36,0.992-0.956,0.992h-2.956
		c-0.986,0-1.569-0.627-1.569-1.596v-3.011h-2.218v3.293c0,0.932-0.46,1.314-1.312,1.314h-3.912c0-3.136-2.536-5.548-5.527-5.548
		c-1.969,0-4.127,1.116-4.179,3.645h2.078c0.104-1.219,1.008-1.673,2.101-1.673c2.054,0,3.317,1.538,3.293,3.576h-10.642v-5.118
		h-3.554c-2.369,0-3.881,1.502-3.881,3.558c0,2.101,1.682,3.739,3.881,3.739h1.226c-0.388,0.918-1.6,0.901-1.95,0.901
		c-0.524,0-1.055-0.116-1.425-0.227l0.573,1.95c0.293,0.083,0.754,0.167,1.15,0.183c1.573,0.048,3.639-0.593,3.933-2.807h17.457
		c1.021,0,1.863-0.459,2.267-1.148c0.421,0.585,1.143,1.148,2.341,1.148h3.024c2.744,0,2.966-2.36,2.966-3.294v-7.332h-2.209
		 M105.981,107.975h-1.397c-0.97,0-1.522-0.74-1.522-1.56c0-0.755,0.552-1.59,1.522-1.59h1.397V107.975z"/>
	<rect x="138.58" y="99.527" clip-path="url(#SVGID_2_)" fill="#807F83" width="2.195" height="10.626"/>
	<path clip-path="url(#SVGID_2_)" fill="#807F83" d="M142.846,106.415c0,2.101,1.671,3.739,3.87,3.739h1.227
		c-0.379,0.885-1.528,0.901-1.918,0.901h-0.036c-0.521,0-1.046-0.116-1.425-0.227l0.578,1.95c0.345,0.096,0.908,0.183,1.343,0.183
		c1.676,0,3.796-0.805,3.796-3.38v-6.724h-3.565C144.355,102.857,142.846,104.359,142.846,106.415 M148.042,107.975h-1.391
		c-0.97,0-1.524-0.74-1.524-1.56c0-0.755,0.554-1.59,1.524-1.59h1.391V107.975z"/>
	<path clip-path="url(#SVGID_2_)" fill="#807F83" d="M166.577,106.983c0,0.649-0.341,0.992-0.937,0.992h-6.553
		c-0.752,0-1.349-0.562-1.463-1.134c-0.145-0.738,0.331-1.38,0.331-1.38s-0.652-0.555-1.594-1.407
		c-0.866,1.15-0.904,2.233-0.866,2.787c0.081,1.69,1.665,3.313,3.671,3.313h6.663c2.755,0,2.977-2.36,2.977-3.293v-4.004h-2.229"/>
	<rect x="162.66" y="103.051" clip-path="url(#SVGID_2_)" fill="#807F83" width="2.248" height="1.887"/>
	<rect x="159.413" y="103.051" clip-path="url(#SVGID_2_)" fill="#807F83" width="2.248" height="1.887"/>
	<path clip-path="url(#SVGID_2_)" fill="#807F83" d="M199.607,107.314c-0.015,0.791-0.251,1.609-1.339,1.609
		c-0.681,0-1.292-0.622-1.32-1.703v-3.852h-2.201v3.946c-0.014,0.791-0.241,1.609-1.323,1.609c-0.686,0-1.297-0.622-1.336-1.703
		v-3.852h-2.215v3.616c0,0.648-0.36,0.991-0.946,0.991h-1.853h-11.5h-1.258c-0.583,0-0.947-0.343-0.947-0.991v-7.456h-2.191v7.332
		c0,0.934,0.198,3.293,2.957,3.293h1.439h11.5h2.047c1.378,0,2.12-0.589,2.517-1.291c0.679,1.355,1.619,1.624,2.735,1.624
		c0.844,0,2.051-0.597,2.362-1.397c0.686,0.952,1.378,1.397,2.494,1.397c1.969,0,2.574-1.544,2.574-3.172v-4.444h-2.196"/>
	<rect x="204.165" y="99.527" clip-path="url(#SVGID_2_)" fill="#807F83" width="2.199" height="10.626"/>
	<path clip-path="url(#SVGID_2_)" fill="#807F83" d="M211.031,109.006c-0.025,1.555-1.251,2.049-2.04,2.049
		c-0.956,0-1.888-0.376-1.888-0.376l0.364,1.819c0,0,0.8,0.376,1.822,0.463c1.983,0.159,3.971-1.189,3.971-3.872v-6.246h-2.229"/>
	<path clip-path="url(#SVGID_2_)" fill="#807F83" d="M234.747,106.983c0,0.649-0.355,0.992-0.951,0.992h-2.952
		c-0.981,0-1.576-0.628-1.576-1.595v-6.852h-2.21v7.133c0,0.932-0.459,1.314-1.316,1.314h-3.79v-2.463
		c0-1.969-1.149-2.851-3.247-2.851c-0.955,0-2.947,0.345-3.032,2.458h2.077c0.08-0.72,0.615-0.916,0.989-0.916
		c0.947,0,0.947,0.765,0.947,0.765v3.007h-4.358v2.179h11.038c1.018,0,1.875-0.459,2.258-1.148c0.436,0.584,1.155,1.148,2.352,1.148
		h3.018c2.754,0,2.977-2.36,2.977-3.293v-7.333h-2.224"/>
	<path clip-path="url(#SVGID_2_)" fill="#807F83" d="M253.253,98.849c0.276-0.028,0.512-0.14,0.702-0.306
		c0.216,0.244,0.491,0.306,0.761,0.306c0.426,0,0.965-0.261,1.159-0.928v-1.334h-0.785v1.334c-0.086,0.116-0.232,0.165-0.341,0.165
		c-0.236,0-0.345-0.165-0.345-0.543v-0.956h-0.786v1.334c-0.089,0.116-0.237,0.165-0.346,0.165c-0.241,0-0.349-0.165-0.349-0.543
		v-0.956h-0.803v1.054C252.119,98.513,252.761,98.887,253.253,98.849"/>
	<path clip-path="url(#SVGID_2_)" fill="#807F83" d="M258.961,106.984c0,0.648-0.366,0.991-0.957,0.991h-1.188
		c-0.988,0-1.58-0.627-1.58-1.595v-6.852h-2.206v7.133c0,0.932-0.458,1.314-1.32,1.314h-1.704c-0.577,0-0.936-0.343-0.936-0.991
		v-5.079l-2.21,0.545v0.555c-2.74,0.015-4.727,0.933-4.679,3.524c0.014,1.446,1.263,2.825,2.825,2.905
		c1.097,0.066,1.802-0.492,2.144-0.89c0.34,0.841,1.087,1.61,2.654,1.61h2.527c1.021,0,1.873-0.459,2.262-1.147
		c0.435,0.584,1.149,1.147,2.355,1.147h1.254c2.754,0,2.973-2.36,2.973-3.294v-7.332h-2.214 M246.861,106.316
		c0,1.047-0.611,1.573-1.333,1.554c-0.934-0.011-1.251-0.949-1.232-1.509c0.047-1.521,1.424-2.002,2.565-2.002V106.316z"/>
	<rect x="263.541" y="99.527" clip-path="url(#SVGID_2_)" fill="#807F83" width="2.2" height="10.626"/>
	<rect x="290.859" y="111.085" clip-path="url(#SVGID_2_)" fill="#807F83" width="2.233" height="1.894"/>
	<path clip-path="url(#SVGID_2_)" fill="#807F83" d="M299.599,106.562c0-1.231,0.563-1.966,1.476-1.966
		c0.824,0,1.311,0.342,1.377,1.325h2.202c0-2.193-1.539-3.495-3.46-3.495c-2.702,0-3.877,2.068-3.877,4.157v1.392h-2.64
		c-0.978,0-1.575-0.627-1.575-1.595v-3.012h-2.216v3.293c0,0.932-0.458,1.314-1.304,1.314h-1.486h-11.494h-2.167v-2.463
		c0-1.969-1.152-2.851-3.25-2.851c-0.952,0-2.949,0.345-3.035,2.458h2.083c0.086-0.72,0.61-0.916,0.988-0.916
		c0.956,0,0.956,0.764,0.956,0.764v3.008h-4.373v2.178h8.798h11.494h2.105c1.013,0,1.87-0.458,2.263-1.147
		c0.425,0.585,1.154,1.147,2.342,1.147h10.107v-2.178h-5.314"/>
	<path clip-path="url(#SVGID_2_)" fill="#807F83" d="M318.952,103.843l-0.799-0.745c-0.134,0.315-0.493,0.284-0.521,0.284h-1.074
		v-0.54c0-0.367,0.08-0.66,0.435-0.66c0.175,0,0.426,0.097,0.45,0.443h1.183c-0.07-1.143-0.616-1.657-1.633-1.657
		c-1.163,0-1.629,0.904-1.629,1.874v0.54h-0.651l-0.384,1.242h3.232C318.01,104.624,318.679,104.432,318.952,103.843"/>
	<path clip-path="url(#SVGID_2_)" fill="#807F83" d="M362.774,106.983c0,0.649-0.359,0.991-0.946,0.991h-2.991
		c-0.705,0-0.983-0.508-1.068-1.114c-0.029-1.874-1.372-3.854-3.881-3.854c-2.522,0-3.89,2.018-3.89,3.977
		c-0.038,0.812-0.672,0.991-0.969,0.991h-2.144c-0.99,0-1.587-0.626-1.587-1.594v-6.853h-2.208v7.135
		c0,0.931-0.454,1.312-1.31,1.312h-1.472h-14.344h-0.941c-1.004,0-1.575-0.626-1.575-1.594v-6.853h-2.225v7.456
		c0,0.649-0.349,0.991-0.936,0.991h-6.56c-0.761,0-1.343-0.56-1.461-1.133c-0.147-0.738,0.326-1.379,0.326-1.379
		s-0.653-0.556-1.595-1.407c-0.861,1.149-0.899,2.233-0.861,2.786c0.075,1.69,1.671,3.313,3.667,3.313h6.668
		c1.225,0,1.95-0.471,2.376-1.065c0.445,0.559,1.144,1.065,2.309,1.065h0.808h14.344h2.095c1.017,0,1.868-0.459,2.258-1.148
		c0.43,0.584,1.153,1.148,2.355,1.148h2.144c0.754,0,1.368-0.211,1.786-0.506c0.661,0.803,1.64,1.391,2.942,1.391
		c1.396,0,2.438-0.687,3.08-1.623c0.525,0.407,1.236,0.738,1.987,0.738h3.067c2.755,0,2.976-2.359,2.976-3.294v-7.333h-2.224
		 M353.888,109.155c-1.203,0-1.608-0.942-1.608-2.248c0-1.164,0.405-2.12,1.608-2.12c1.212,0,1.604,0.956,1.604,2.12
		C355.492,108.213,355.1,109.155,353.888,109.155"/>
	<rect x="367.36" y="99.527" clip-path="url(#SVGID_2_)" fill="#807F83" width="2.191" height="10.626"/>
	<rect x="374.199" y="100.072" clip-path="url(#SVGID_2_)" fill="#807F83" width="2.229" height="1.888"/>
	<path clip-path="url(#SVGID_2_)" fill="#807F83" d="M399.671,102.661h-4.798c0.34-0.54,1.032-1.021,2.323-1.021h2.441v-2.112
		h-2.602c-2.736,0-5.011,1.985-5.011,5.312h7.647c0.979,0,1.594,0.722,1.594,1.594c0,0.854-0.752,1.54-1.594,1.54h-9.176h-11.507
		h-0.965c-0.976,0-1.538-0.589-1.58-1.507v-3.1h-2.23v5.639c-0.014,1.555-1.249,2.049-2.035,2.049c-0.952,0-1.889-0.376-1.889-0.376
		l0.366,1.819c0,0,0.804,0.377,1.822,0.463c1.83,0.144,3.686-1.018,3.936-3.314c0.417,0.296,0.984,0.507,1.738,0.507h0.837h11.507
		h9.176c2.238,0,3.871-1.638,3.871-3.72C403.542,104.36,402.052,102.661,399.671,102.661"/>
	<path clip-path="url(#SVGID_2_)" fill="#807F83" d="M419.654,102.301c-2.522,0-3.819,2.015-3.819,3.901v0.759
		c0,0.632-0.35,1.014-0.936,1.014h-2.886c-0.971,0-1.543-0.589-1.573-1.507v-3.1h-2.234v5.638c-0.018,1.555-1.247,2.049-2.033,2.049
		c-0.956,0-1.879-0.376-1.879-0.376l0.351,1.819c0,0,0.803,0.376,1.83,0.464c1.827,0.142,3.682-1.02,3.928-3.315
		c0.412,0.296,0.984,0.506,1.731,0.506h2.864c0.984,0,1.657-0.496,1.954-0.87c0.591,0.53,1.439,1.05,2.702,1.05
		c2.526,0,3.89-2.228,3.89-4.131C423.543,104.316,422.179,102.301,419.654,102.301 M419.654,108.45
		c-1.145,0-1.556-1.086-1.556-2.248c0-1.048,0.411-2.117,1.556-2.117c1.202,0,1.62,0.949,1.62,2.117
		C421.273,107.515,420.855,108.45,419.654,108.45"/>
</g>
</svg>
